<svg width="61" height="47" viewBox="0 0 61 47" fill="none" xmlns="http://www.w3.org/2000/svg">
<path d="M19.2 46.3361C15.488 46.3361 12.1814 45.4188 9.28003 43.5841C6.3787 41.7494 4.09603 39.1041 2.43203 35.6481C0.810695 32.1494 2.83718e-05 27.9894 2.83718e-05 23.1681C2.83718e-05 18.3468 0.810695 14.2081 2.43203 10.7521C4.09603 7.25345 6.3787 4.58678 9.28003 2.75211C12.1814 0.917447 15.488 0.000114441 19.2 0.000114441C22.912 0.000114441 26.2187 0.917447 29.12 2.75211C32.0214 4.58678 34.2827 7.25345 35.904 10.7521C37.568 14.2081 38.4 18.3468 38.4 23.1681C38.4 27.9894 37.568 32.1494 35.904 35.6481C34.2827 39.1041 32.0214 41.7494 29.12 43.5841C26.2187 45.4188 22.912 46.3361 19.2 46.3361ZM19.2 37.5681C21.9307 37.5681 24.064 36.3948 25.6 34.0481C27.1787 31.7014 27.968 28.0748 27.968 23.1681C27.968 18.2614 27.1787 14.6348 25.6 12.2881C24.064 9.94145 21.9307 8.76811 19.2 8.76811C16.512 8.76811 14.3787 9.94145 12.8 12.2881C11.264 14.6348 10.496 18.2614 10.496 23.1681C10.496 28.0748 11.264 31.7014 12.8 34.0481C14.3787 36.3948 16.512 37.5681 19.2 37.5681ZM60.3425 0.768112V45.5681H49.9745V9.08811H41.0145V0.768112H60.3425Z" fill="#343045"/>
</svg>
