<svg width="77" height="47" viewBox="0 0 77 47" fill="none" xmlns="http://www.w3.org/2000/svg">
<path d="M19.2 46.3361C15.5307 46.3361 12.2453 45.4401 9.344 43.6481C6.44266 41.8134 4.16 39.1681 2.496 35.7121C0.831998 32.2561 -2.14577e-06 28.0748 -2.14577e-06 23.1681C-2.14577e-06 18.2614 0.831998 14.0801 2.496 10.6241C4.16 7.16811 6.44266 4.54411 9.344 2.75211C12.2453 0.917447 15.5307 0.000114441 19.2 0.000114441C22.912 0.000114441 26.1973 0.917447 29.056 2.75211C31.9573 4.54411 34.24 7.16811 35.904 10.6241C37.568 14.0801 38.4 18.2614 38.4 23.1681C38.4 28.0748 37.568 32.2561 35.904 35.7121C34.24 39.1681 31.9573 41.8134 29.056 43.6481C26.1973 45.4401 22.912 46.3361 19.2 46.3361ZM19.2 37.5681C20.9493 37.5681 22.464 37.0774 23.744 36.0961C25.0667 35.1148 26.0907 33.5574 26.816 31.4241C27.584 29.2908 27.968 26.5388 27.968 23.1681C27.968 19.7974 27.584 17.0454 26.816 14.9121C26.0907 12.7788 25.0667 11.2214 23.744 10.2401C22.464 9.25878 20.9493 8.76811 19.2 8.76811C17.4933 8.76811 15.9787 9.25878 14.656 10.2401C13.376 11.2214 12.352 12.7788 11.584 14.9121C10.8587 17.0454 10.496 19.7974 10.496 23.1681C10.496 26.5388 10.8587 29.2908 11.584 31.4241C12.352 33.5574 13.376 35.1148 14.656 36.0961C15.9787 37.0774 17.4933 37.5681 19.2 37.5681ZM42.8035 45.5681V38.8481L60.0835 22.5281C61.4488 21.2908 62.4515 20.1814 63.0915 19.2001C63.7315 18.2188 64.1582 17.3228 64.3715 16.5121C64.6275 15.7014 64.7555 14.9548 64.7555 14.2721C64.7555 12.4801 64.1368 11.1148 62.8995 10.1761C61.7048 9.19478 59.9342 8.70411 57.5875 8.70411C55.7102 8.70411 53.9608 9.06678 52.3395 9.79211C50.7608 10.5174 49.4168 11.6481 48.3075 13.1841L40.7555 8.32011C42.4622 5.76011 44.8515 3.73345 47.9235 2.24011C50.9955 0.74678 54.5368 0.000114441 58.5475 0.000114441C61.8755 0.000114441 64.7768 0.55478 67.2515 1.66411C69.7688 2.73078 71.7102 4.24545 73.0755 6.20811C74.4835 8.17078 75.1875 10.5174 75.1875 13.2481C75.1875 14.6988 74.9955 16.1494 74.6115 17.6001C74.2702 19.0081 73.5448 20.5014 72.4355 22.0801C71.3688 23.6588 69.7902 25.4294 67.6995 27.3921L53.3635 40.8961L51.3795 37.1201H76.6595V45.5681H42.8035Z" fill="#343045"/>
</svg>
