<svg width="76" height="47" viewBox="0 0 76 47" fill="none" xmlns="http://www.w3.org/2000/svg">
<path d="M19.2 46.3361C15.488 46.3361 12.1813 45.4188 9.28 43.5841C6.37866 41.7494 4.096 39.1041 2.432 35.6481C0.810665 32.1494 -2.14577e-06 27.9894 -2.14577e-06 23.1681C-2.14577e-06 18.3468 0.810665 14.2081 2.432 10.7521C4.096 7.25345 6.37866 4.58678 9.28 2.75211C12.1813 0.917447 15.488 0.000114441 19.2 0.000114441C22.912 0.000114441 26.2187 0.917447 29.12 2.75211C32.0213 4.58678 34.2827 7.25345 35.904 10.7521C37.568 14.2081 38.4 18.3468 38.4 23.1681C38.4 27.9894 37.568 32.1494 35.904 35.6481C34.2827 39.1041 32.0213 41.7494 29.12 43.5841C26.2187 45.4188 22.912 46.3361 19.2 46.3361ZM19.2 37.5681C21.9307 37.5681 24.064 36.3948 25.6 34.0481C27.1787 31.7014 27.968 28.0748 27.968 23.1681C27.968 18.2614 27.1787 14.6348 25.6 12.2881C24.064 9.94145 21.9307 8.76811 19.2 8.76811C16.512 8.76811 14.3787 9.94145 12.8 12.2881C11.264 14.6348 10.496 18.2614 10.496 23.1681C10.496 28.0748 11.264 31.7014 12.8 34.0481C14.3787 36.3948 16.512 37.5681 19.2 37.5681ZM63.7405 19.0081C67.6658 19.6481 70.6738 21.1201 72.7645 23.4241C74.8552 25.6854 75.9005 28.5014 75.9005 31.8721C75.9005 34.4748 75.2178 36.8854 73.8525 39.1041C72.4872 41.2801 70.3965 43.0294 67.5805 44.3521C64.8072 45.6748 61.3938 46.3361 57.3405 46.3361C54.1832 46.3361 51.0685 45.9308 47.9965 45.1201C44.9672 44.2668 42.3858 43.0721 40.2525 41.5361L44.2845 33.6001C45.9912 34.8801 47.9538 35.8828 50.1725 36.6081C52.4338 37.2908 54.7378 37.6321 57.0845 37.6321C59.6872 37.6321 61.7352 37.1414 63.2285 36.1601C64.7218 35.1361 65.4685 33.7068 65.4685 31.8721C65.4685 28.2028 62.6738 26.3681 57.0845 26.3681H52.3485V19.5201L61.5645 9.08811H42.4925V0.768112H73.8525V7.48811L63.7405 19.0081Z" fill="#343045"/>
</svg>
