<svg width="85" height="47" viewBox="0 0 85 47" fill="none" xmlns="http://www.w3.org/2000/svg">
<path d="M19.2 46.3361C15.5307 46.3361 12.2453 45.4401 9.344 43.6481C6.44266 41.8134 4.16 39.1681 2.496 35.7121C0.831998 32.2561 -2.14577e-06 28.0748 -2.14577e-06 23.1681C-2.14577e-06 18.2614 0.831998 14.0801 2.496 10.6241C4.16 7.16811 6.44266 4.54411 9.344 2.75211C12.2453 0.917447 15.5307 0.000114441 19.2 0.000114441C22.912 0.000114441 26.1973 0.917447 29.056 2.75211C31.9573 4.54411 34.24 7.16811 35.904 10.6241C37.568 14.0801 38.4 18.2614 38.4 23.1681C38.4 28.0748 37.568 32.2561 35.904 35.7121C34.24 39.1681 31.9573 41.8134 29.056 43.6481C26.1973 45.4401 22.912 46.3361 19.2 46.3361ZM19.2 37.5681C20.9493 37.5681 22.464 37.0774 23.744 36.0961C25.0667 35.1148 26.0907 33.5574 26.816 31.4241C27.584 29.2908 27.968 26.5388 27.968 23.1681C27.968 19.7974 27.584 17.0454 26.816 14.9121C26.0907 12.7788 25.0667 11.2214 23.744 10.2401C22.464 9.25878 20.9493 8.76811 19.2 8.76811C17.4933 8.76811 15.9787 9.25878 14.656 10.2401C13.376 11.2214 12.352 12.7788 11.584 14.9121C10.8587 17.0454 10.496 19.7974 10.496 23.1681C10.496 26.5388 10.8587 29.2908 11.584 31.4241C12.352 33.5574 13.376 35.1148 14.656 36.0961C15.9787 37.0774 17.4933 37.5681 19.2 37.5681ZM42.9255 36.1601V29.1841L64.0455 0.768112H74.9255L54.2535 29.1841L49.1975 27.7121H84.4615V36.1601H42.9255ZM67.0535 45.5681V36.1601L67.3735 27.7121V19.3281H77.1655V45.5681H67.0535Z" fill="#343045"/>
</svg>
